<?xml version="1.0" encoding="UTF-8"?>
<svg width="249px" height="40px" viewBox="0 0 249 40" version="1.1" xmlns="http://www.w3.org/2000/svg" xmlns:xlink="http://www.w3.org/1999/xlink">
    <!-- Generator: Sketch 53.2 (72643) - https://sketchapp.com -->
    <title>TXFLOW</title>
    <desc>Created with Sketch.</desc>
    <g id="Page-1" stroke="none" stroke-width="1" fill="none" fill-rule="evenodd">
        <g id="Artboard-Copy" transform="translate(-23.000000, -20.000000)" fill="#000000" fill-rule="nonzero">
            <path d="M23,20 L43,20 L43,26.7 L29.7,26.7 L29.7,60 L23,60 L23,20 Z M61.2166651,20 L72.5666651,34.6 L68.3666651,40 L52.6666651,20 L61.2166651,20 Z M52.6666651,60 L68.3666651,40 L72.5666651,45.4 L61.2166651,60 L52.6666651,60 Z M92.4166651,20 L76.8166651,40 L72.5666651,34.6 L83.9666651,20 L92.4166651,20 Z M72.5666651,45.4 L76.8166651,40 L92.4166651,60 L83.9666651,60 L72.5666651,45.4 Z M102.78333,39.95 L129.43333,39.95 L129.43333,46.7 L109.43333,46.7 L109.43333,60 L102.78333,60 L102.78333,39.95 Z M102.78333,20 L129.43333,20 L129.43333,26.7 L109.43333,26.7 L102.78333,20 Z M145.449995,53.3 L165.449995,53.3 L165.449995,60 L138.799995,60 L145.449995,53.3 Z M138.799995,20 L145.449995,20 L145.449995,44.25 L138.799995,50.95 L138.799995,20 Z M186.41666,20 C191.96666,20 196.61666,22 200.51666,25.9 C204.46666,29.8 206.46666,34.5 206.46666,40 C206.46666,45.55 204.46666,50.25 200.51666,54.1 C196.61666,58 191.96666,60 186.41666,60 C180.86666,60 176.21666,58 172.31666,54.1 C168.41666,50.2 166.41666,45.55 166.41666,40 C166.41666,34.5 168.41666,29.8 172.31666,25.9 C176.16666,22 180.86666,20 186.41666,20 Z M186.41666,26.7 C182.76666,26.7 179.61666,27.95 176.96666,30.6 C174.36666,33.2 173.11666,36.35 173.11666,40 C173.11666,43.65 174.36666,46.85 176.96666,49.45 C179.56666,52.05 182.76666,53.3 186.41666,53.3 C190.06666,53.3 193.21666,52.05 195.81666,49.45 C198.46666,46.8 199.71666,43.65 199.71666,40 C199.71666,36.35 198.41666,33.2 195.81666,30.6 C193.21666,28 190.06666,26.7 186.41666,26.7 Z M213.633325,20 L226.233325,45.05 L222.483325,52.55 L206.183325,20 L213.633325,20 Z M263.883325,20 L271.333325,20 L251.333325,60 L238.733325,34.95 L242.483325,27.45 L251.333325,45.05 L263.883325,20 Z" id="TXFLOW"></path>
        </g>
    </g>
</svg>